<?xml version="1.0" encoding="utf-8"?>
<!-- Generator: Adobe Illustrator 23.0.2, SVG Export Plug-In . SVG Version: 6.00 Build 0)  -->
<svg version="1.1" id="Layer_1" xmlns="http://www.w3.org/2000/svg" xmlns:xlink="http://www.w3.org/1999/xlink" x="0px" y="0px"
	 viewBox="0 0 364.5 77.4" style="enable-background:new 0 0 364.5 77.4;" xml:space="preserve">
<style type="text/css">
	.st0{fill:none;}
	.st1{fill:#1E2456;}
	.st2{fill:#FF006B;}
	.st3{fill:#00B7BC;}
	.st4{fill:#1A1A54;}
	.st5{fill:#E1BF92;}
	.st6{fill:#81C30A;}
	.st7{fill:#FF0069;}
	.st8{fill:#04B9C2;}
	.st9{fill:#B257C0;}
	.st10{fill:#00BFC8;}
	.st11{fill:#FE9E0C;}
	.st12{fill:#00B9C2;}
	.st13{fill:#AF55C6;}
	.st14{fill:#01BABF;}
	.st15{fill:#7AC000;}
	.st16{fill:#AB5BBC;}
	.st17{fill:#03B7C5;}
	.st18{fill:#204A75;}
</style>
<g>
	<path class="st0" d="M72.9,121.3L72.9,121.3L72.9,121.3z"/>
	<path class="st0" d="M73,121.3L73,121.3L73,121.3z"/>
	<path class="st1" d="M72.9,121.3L72.9,121.3L72.9,121.3z"/>
	<path class="st1" d="M73.1,121.4L73.1,121.4L73.1,121.4z"/>
	<g>
		<g>
			<path class="st2" d="M70.1,159.8c-1,0-2-0.4-2.7-1.2c-1.3-1.5-1.2-3.8,0.3-5.1l6.6-5.8c1.5-1.3,3.8-1.2,5.1,0.3
				c1.3,1.5,1.2,3.8-0.3,5.1l-6.6,5.8C71.9,159.5,71,159.8,70.1,159.8z"/>
		</g>
	</g>
	<g>
		<g>
			<path class="st3" d="M76.5,171.1c-0.5,0-1.1-0.1-1.6-0.4l0,0c-1.8-0.9-2.5-3.1-1.6-4.9c0.9-1.8,3.1-2.5,4.9-1.6l0,0
				c1.8,0.9,2.5,3.1,1.6,4.9C79.1,170.4,77.8,171.1,76.5,171.1z"/>
		</g>
	</g>
	<g>
		<path class="st4" d="M63,189.5c-0.9,0-1.9-0.4-2.6-1.1c-1.4-1.4-1.4-3.7,0-5.1l6.6-6.6c1.4-1.4,3.7-1.4,5.1,0
			c1.4,1.4,1.4,3.7,0,5.1l-6.6,6.6C64.9,189.2,63.9,189.5,63,189.5z"/>
	</g>
	<g>
		<g>
			<path class="st5" d="M53,179.2c-2,0-3.6-1.6-3.6-3.6v-0.1c0-2,1.6-3.6,3.6-3.6s3.6,1.6,3.6,3.6v0.1C56.6,177.6,55,179.2,53,179.2
				z"/>
		</g>
	</g>
	<g>
		<g>
			<path class="st6" d="M21.1,183.5L21.1,183.5c-2.1,0-3.7-1.6-3.7-3.6s1.6-3.6,3.6-3.6h0.1c2,0,3.6,1.6,3.6,3.6
				S23.1,183.5,21.1,183.5z"/>
		</g>
	</g>
	<g>
		<g>
			<path class="st7" d="M13.4,170.6c-1.1,0-2.1-0.5-2.8-1.4c-1.3-1.6-1-3.9,0.6-5.1l7.1-5.7c1.6-1.3,3.9-1,5.1,0.6
				c1.3,1.6,1,3.9-0.6,5.1l-7.1,5.7C15,170.3,14.2,170.6,13.4,170.6z"/>
		</g>
	</g>
	<g>
		<g>
			<path class="st8" d="M13.9,153.2c-0.7,0-1.4-0.2-2-0.6l0,0c-1.7-1.1-2.1-3.4-1-5c1.1-1.7,3.4-2.1,5-1l0,0c1.7,1.1,2.1,3.4,1,5
				C16.2,152.6,15.1,153.2,13.9,153.2z"/>
		</g>
	</g>
	<g>
		<g>
			<path class="st9" d="M19.6,140.2c-1,0-2-0.4-2.7-1.2c-1.3-1.5-1.2-3.8,0.3-5.1l6-5.3c1.5-1.3,3.8-1.2,5.1,0.3
				c1.3,1.5,1.2,3.8-0.3,5.1l-6,5.3C21.3,139.9,20.4,140.2,19.6,140.2z"/>
		</g>
	</g>
	<g>
		<g>
			<path class="st10" d="M39.1,129.1L39.1,129.1c-2,0-3.7-1.6-3.7-3.6s1.6-3.6,3.6-3.6l0,0c2,0,3.6,1.6,3.6,3.6
				S41.1,129.1,39.1,129.1z"/>
		</g>
	</g>
	<g>
		<path class="st5" d="M55.1,130.2c-0.7,0-1.5-0.2-2.1-0.7h-0.1c-1.6-1.2-2-3.5-0.8-5.1s3.5-2,5.1-0.8h0.1c1.6,1.2,2,3.5,0.8,5.1
			C57.3,129.7,56.2,130.2,55.1,130.2z"/>
	</g>
	<g>
		<path d="M69.4,139.4c-0.8,0-1.6-0.3-2.3-0.8l-0.1-0.1c-1.6-1.3-1.8-3.5-0.6-5.1c1.3-1.6,3.5-1.8,5.1-0.6l0.1,0.1
			c1.6,1.3,1.8,3.5,0.6,5.1C71.6,138.9,70.5,139.4,69.4,139.4z"/>
	</g>
	<g>
		<g>
			<path class="st11" d="M62.2,148.9c-1,0-2-0.4-2.7-1.2l-6.6-7.2c-1.4-1.5-1.2-3.8,0.2-5.1c1.5-1.4,3.8-1.2,5.1,0.2l6.6,7.2
				c1.4,1.5,1.2,3.8-0.2,5.1C63.9,148.6,63,148.9,62.2,148.9z"/>
		</g>
	</g>
	<g>
		<path class="st11" d="M34.7,191.7c-0.9,0-1.9-0.4-2.6-1.1l-0.1-0.1c-1.4-1.4-1.4-3.7,0-5.1c1.4-1.4,3.7-1.4,5.1,0l0.1,0.1
			c1.4,1.4,1.4,3.7,0,5.1C36.6,191.3,35.7,191.7,34.7,191.7z"/>
	</g>
	<g>
		<g>
			<path class="st12" d="M51.1,192.8L51.1,192.8c-2.1,0-3.7-1.6-3.7-3.6s1.6-3.6,3.6-3.6h0.1c2,0,3.6,1.6,3.6,3.6
				S53.1,192.8,51.1,192.8z"/>
		</g>
	</g>
	<g>
		<g>
			<path class="st13" d="M69.4,139.4c-0.8,0-1.6-0.3-2.3-0.8l-0.1-0.1c-1.6-1.3-1.8-3.5-0.6-5.1c1.3-1.6,3.5-1.8,5.1-0.6l0.1,0.1
				c1.6,1.3,1.8,3.5,0.6,5.1C71.6,138.9,70.5,139.4,69.4,139.4z"/>
		</g>
	</g>
	<path class="st11" d="M57.1,157c0.7-1.4,0.8-3.1,0.2-4.7c-0.6-1.5-1.9-2.6-3.4-2.9c-0.2-0.1-0.4-0.2-0.5-0.5
		c-0.6-1.5-1.8-2.7-3.4-3.1c-0.4-0.1-0.8-0.1-1.1-0.1c-0.5,0-0.9,0.1-1.4,0.2c-0.7,0.2-1.4,0.7-1.9,1.3c-0.3,0.3-0.8,0.3-1,0
		c-0.5-0.6-1.2-1-1.9-1.3c-0.5-0.1-0.9-0.2-1.4-0.2c-0.4,0-0.8,0-1.1,0.1c-1.6,0.4-2.8,1.6-3.4,3.1c-0.1,0.2-0.3,0.4-0.5,0.5
		c-1.5,0.3-2.7,1.4-3.4,2.9c-0.7,1.6-0.6,3.3,0.2,4.7c0.1,0.2,0.1,0.5,0,0.7c-0.7,1.4-0.8,3.1-0.2,4.7c0.6,1.5,1.9,2.5,3.4,2.9
		c0.2,0.1,0.4,0.2,0.5,0.5c0.6,1.5,1.8,2.7,3.4,3.1c0.4,0.1,0.7,0.1,1.1,0.1c0.1,0,0.2,0,0.4,0c0.1,0,0.3,0,0.4-0.1
		c0.8-0.1,1.5-0.5,2.2-1c0.5-0.4,1.1-0.4,1.6-0.1c0.7,0.5,1.3,0.8,1.9,1l0,0c0,0,0,0,0.1,0H48l0,0c0.2,0,0.3,0.1,0.5,0.1
		c0.1,0,0.2,0,0.4,0c0.4,0,0.8,0,1.1-0.1c1.6-0.4,2.8-1.6,3.4-3.1c0.1-0.2,0.3-0.4,0.5-0.5c1.5-0.3,2.7-1.4,3.4-2.9
		c0.7-1.6,0.6-3.3-0.2-4.7C57,157.5,57,157.2,57.1,157z M44,151L44,151v3.1v6.4v2.3v1c0,1.6-1.1,3-2.5,3.1c-0.1,0-0.1,0-0.2,0
		c-0.2,0-0.4,0-0.6-0.1c-1.3-0.3-2.1-1.5-2.2-2.9c0-0.4-0.4-0.7-0.8-0.7c-0.1,0-0.2,0-0.3,0c-1.1,0-2.1-0.7-2.6-1.8
		c-0.6-1.3-0.3-2.9,0.7-3.8c0.3-0.3,0.3-0.7,0-1c-0.9-0.9-1.2-2.5-0.7-3.8c0.5-1.2,1.5-1.8,2.6-1.8c0.1,0,0.2,0,0.3,0
		c0.4,0,0.8-0.2,0.8-0.7c0.1-1.4,1-2.6,2.2-2.9c0.2-0.1,0.4-0.1,0.6-0.1c0.3,0,0.5,0,0.8,0.1c1.2,0.4,2,1.6,2,3L44,151L44,151z
		 M54.9,157.8c0.9,0.9,1.2,2.5,0.7,3.8c-0.5,1.2-1.5,1.8-2.6,1.8c-0.1,0-0.2,0-0.3,0c-0.4-0.1-0.8,0.2-0.8,0.7
		c-0.1,1.4-1,2.6-2.2,2.9c-0.2,0.1-0.4,0.1-0.6,0.1c-0.1,0-0.1,0-0.2,0c-1.4-0.1-2.5-1.5-2.5-3.1v-1l0,0v-2.3v-6.4v-3.1v-0.3
		c0-1.4,0.8-2.6,2-3c0.3-0.1,0.5-0.1,0.8-0.1c0.2,0,0.4,0,0.6,0.1c1.3,0.3,2.1,1.5,2.2,2.9c0,0.4,0.4,0.7,0.8,0.7c0.1,0,0.2,0,0.3,0
		c1.1,0,2.1,0.7,2.6,1.8c0.6,1.3,0.3,2.9-0.7,3.8C54.6,157.1,54.6,157.5,54.9,157.8z"/>
	<path class="st14" d="M28.6,151.1c0.1-0.2,0.1-0.3,0.2-0.5c0.9-2,2.5-3.4,4.5-3.9c0.3-0.1,0.6-0.3,0.7-0.6c0.7-2,2.4-3.6,4.5-4.1
		c0.5-0.1,1-0.2,1.5-0.2c0.1,0,0.3,0,0.4,0c0.6-1.2,0.4-2.8-0.5-3.9c-1.3-1.5-3.6-1.8-5.1-0.5l-8.7,7.2c-1.5,1.3-1.8,3.6-0.5,5.1
		c0.7,0.9,1.8,1.3,2.8,1.3C28.4,151.1,28.5,151.1,28.6,151.1z"/>
	<g>
		<path class="st15" d="M66.9,163.8l-5.8-6.8c-0.1,0.3-0.1,0.5,0.1,0.8c1,1.9,1.1,4.2,0.2,6.3c-0.4,0.9-1,1.8-1.7,2.4l1.8,2.1
			c0.7,0.8,1.7,1.3,2.8,1.3c0.8,0,1.7-0.3,2.4-0.9C68,167.6,68.2,165.3,66.9,163.8z"/>
	</g>
	<g>
		<path class="st16" d="M28.8,164.1c-0.4-1-0.6-2-0.6-3c-1.3,1.4-1.3,3.7,0.1,5.1l0,0c0.7,0.7,1.6,1.1,2.6,1.1c0.2,0,0.4,0,0.6,0
			C30.3,166.5,29.4,165.4,28.8,164.1z"/>
	</g>
	<g>
		<path class="st17" d="M43.9,171.4c-0.9,0.7-1.9,1.2-2.9,1.4c-0.2,0-0.4,0.1-0.5,0.1c-0.2,0-0.3,0-0.5,0c-0.5,0-1-0.1-1.5-0.2
			c-1-0.3-1.9-0.7-2.6-1.4l-4.3,3.7c-1.5,1.3-1.7,3.6-0.4,5.1c0.7,0.8,1.7,1.3,2.8,1.3c0.8,0,1.7-0.3,2.4-0.9l7.2-6.2
			c1-0.8,1.4-2.1,1.2-3.2C44.4,171.1,44.2,171.2,43.9,171.4z"/>
	</g>
</g>
<g>
	<g>
		<path class="st0" d="M69.2,3L69.2,3L69.2,3z"/>
		<path class="st0" d="M69.3,3L69.3,3L69.3,3z"/>
		<path class="st1" d="M69.2,3L69.2,3L69.2,3z"/>
		<path class="st1" d="M69.4,3.1L69.4,3.1L69.4,3.1z"/>
		<g>
			<g>
				<path class="st2" d="M66.4,41.5c-1,0-2-0.4-2.7-1.2c-1.3-1.5-1.2-3.8,0.3-5.1l6.6-5.8c1.5-1.3,3.8-1.2,5.1,0.3
					c1.3,1.5,1.2,3.8-0.3,5.1l-6.6,5.8C68.2,41.2,67.3,41.5,66.4,41.5z"/>
			</g>
		</g>
		<g>
			<g>
				<path class="st3" d="M72.8,52.8c-0.5,0-1.1-0.1-1.6-0.4l0,0c-1.8-0.9-2.5-3.1-1.6-4.9s3.1-2.5,4.9-1.6l0,0
					c1.8,0.9,2.5,3.1,1.6,4.9C75.4,52.1,74.1,52.8,72.8,52.8z"/>
			</g>
		</g>
		<g>
			<path class="st4" d="M59.3,71.2c-0.9,0-1.9-0.4-2.6-1.1c-1.4-1.4-1.4-3.7,0-5.1l6.6-6.6c1.4-1.4,3.7-1.4,5.1,0
				c1.4,1.4,1.4,3.7,0,5.1l-6.6,6.6C61.2,70.9,60.2,71.2,59.3,71.2z"/>
		</g>
		<g>
			<g>
				<path class="st5" d="M49.3,60.9c-2,0-3.6-1.6-3.6-3.6v-0.1c0-2,1.6-3.6,3.6-3.6s3.6,1.6,3.6,3.6v0.1
					C52.9,59.3,51.3,60.9,49.3,60.9z"/>
			</g>
		</g>
		<g>
			<g>
				<path class="st6" d="M17.4,65.2L17.4,65.2c-2.1,0-3.7-1.6-3.7-3.6s1.6-3.6,3.6-3.6h0.1c2,0,3.6,1.6,3.6,3.6S19.4,65.2,17.4,65.2
					z"/>
			</g>
		</g>
		<g>
			<g>
				<path class="st7" d="M9.7,52.3c-1.1,0-2.1-0.5-2.8-1.4c-1.3-1.6-1-3.9,0.6-5.1l7.1-5.7c1.6-1.3,3.9-1,5.1,0.6
					c1.3,1.6,1,3.9-0.6,5.1L12,51.5C11.3,52,10.5,52.3,9.7,52.3z"/>
			</g>
		</g>
		<g>
			<g>
				<path class="st8" d="M10.2,34.9c-0.7,0-1.4-0.2-2-0.6l0,0c-1.7-1.1-2.1-3.4-1-5c1.1-1.7,3.4-2.1,5-1l0,0c1.7,1.1,2.1,3.4,1,5
					C12.5,34.3,11.4,34.9,10.2,34.9z"/>
			</g>
		</g>
		<g>
			<g>
				<path class="st9" d="M15.9,21.9c-1,0-2-0.4-2.7-1.2c-1.3-1.5-1.2-3.8,0.3-5.1l6-5.3c1.5-1.3,3.8-1.2,5.1,0.3
					c1.3,1.5,1.2,3.8-0.3,5.1l-6,5.3C17.6,21.6,16.7,21.9,15.9,21.9z"/>
			</g>
		</g>
		<g>
			<g>
				<path class="st10" d="M35.4,10.8L35.4,10.8c-2,0-3.7-1.6-3.7-3.6s1.6-3.6,3.6-3.6l0,0c2,0,3.6,1.6,3.6,3.6S37.4,10.8,35.4,10.8z
					"/>
			</g>
		</g>
		<g>
			<path class="st5" d="M51.4,11.9c-0.7,0-1.5-0.2-2.1-0.7h-0.1c-1.6-1.2-2-3.5-0.8-5.1s3.5-2,5.1-0.8h0.1c1.6,1.2,2,3.5,0.8,5.1
				C53.6,11.4,52.5,11.9,51.4,11.9z"/>
		</g>
		<g>
			<path d="M65.7,21.1c-0.8,0-1.6-0.3-2.3-0.8l-0.1-0.1c-1.6-1.3-1.8-3.5-0.6-5.1c1.3-1.6,3.5-1.8,5.1-0.6l0.1,0.1
				c1.6,1.3,1.8,3.5,0.6,5.1C67.9,20.6,66.8,21.1,65.7,21.1z"/>
		</g>
		<g>
			<g>
				<path class="st11" d="M58.5,30.6c-1,0-2-0.4-2.7-1.2l-6.6-7.2c-1.4-1.5-1.2-3.8,0.2-5.1c1.5-1.4,3.8-1.2,5.1,0.2l6.6,7.2
					c1.4,1.5,1.2,3.8-0.2,5.1C60.2,30.3,59.3,30.6,58.5,30.6z"/>
			</g>
		</g>
		<g>
			<path class="st11" d="M31,73.4c-0.9,0-1.9-0.4-2.6-1.1l-0.1-0.1c-1.4-1.4-1.4-3.7,0-5.1c1.4-1.4,3.7-1.4,5.1,0l0.1,0.1
				c1.4,1.4,1.4,3.7,0,5.1C32.9,73,32,73.4,31,73.4z"/>
		</g>
		<g>
			<g>
				<path class="st12" d="M47.4,74.5L47.4,74.5c-2.1,0-3.7-1.6-3.7-3.6s1.6-3.6,3.6-3.6h0.1c2,0,3.6,1.6,3.6,3.6
					S49.4,74.5,47.4,74.5z"/>
			</g>
		</g>
		<g>
			<g>
				<path class="st13" d="M65.7,21.1c-0.8,0-1.6-0.3-2.3-0.8l-0.1-0.1c-1.6-1.3-1.8-3.5-0.6-5.1c1.3-1.6,3.5-1.8,5.1-0.6l0.1,0.1
					c1.6,1.3,1.8,3.5,0.6,5.1C67.9,20.6,66.8,21.1,65.7,21.1z"/>
			</g>
		</g>
		<path class="st11" d="M53.4,38.7c0.7-1.4,0.8-3.1,0.2-4.7c-0.6-1.5-1.9-2.6-3.4-2.9c-0.2-0.1-0.4-0.2-0.5-0.5
			c-0.6-1.5-1.8-2.7-3.4-3.1c-0.4-0.1-0.8-0.1-1.1-0.1c-0.5,0-0.9,0.1-1.4,0.2c-0.7,0.2-1.4,0.7-1.9,1.3c-0.3,0.3-0.8,0.3-1,0
			c-0.5-0.6-1.2-1-1.9-1.3c-0.5-0.1-0.9-0.2-1.4-0.2c-0.4,0-0.8,0-1.1,0.1c-1.6,0.4-2.8,1.6-3.4,3.1c-0.1,0.2-0.3,0.4-0.5,0.5
			c-1.5,0.3-2.7,1.4-3.4,2.9c-0.7,1.6-0.6,3.3,0.2,4.7c0.1,0.2,0.1,0.5,0,0.7c-0.7,1.4-0.8,3.1-0.2,4.7c0.6,1.5,1.9,2.5,3.4,2.9
			c0.2,0.1,0.4,0.2,0.5,0.5c0.6,1.5,1.8,2.7,3.4,3.1c0.4,0.1,0.7,0.1,1.1,0.1c0.1,0,0.2,0,0.4,0c0.1,0,0.3,0,0.4-0.1
			c0.8-0.1,1.5-0.5,2.2-1c0.5-0.4,1.1-0.4,1.6-0.1c0.7,0.5,1.3,0.8,1.9,1l0,0c0,0,0,0,0.1,0h0.1l0,0c0.2,0,0.3,0.1,0.5,0.1
			c0.1,0,0.2,0,0.4,0c0.4,0,0.8,0,1.1-0.1c1.6-0.4,2.8-1.6,3.4-3.1c0.1-0.2,0.3-0.4,0.5-0.5c1.5-0.3,2.7-1.4,3.4-2.9
			c0.7-1.6,0.6-3.3-0.2-4.7C53.3,39.2,53.3,38.9,53.4,38.7z M40.3,32.7L40.3,32.7v3.1v6.4v2.3v1c0,1.6-1.1,3-2.5,3.1
			c-0.1,0-0.1,0-0.2,0c-0.2,0-0.4,0-0.6-0.1c-1.3-0.3-2.1-1.5-2.2-2.9c0-0.4-0.4-0.7-0.8-0.7c-0.1,0-0.2,0-0.3,0
			c-1.1,0-2.1-0.7-2.6-1.8c-0.6-1.3-0.3-2.9,0.7-3.8c0.3-0.3,0.3-0.7,0-1c-0.9-0.9-1.2-2.5-0.7-3.8c0.5-1.2,1.5-1.8,2.6-1.8
			c0.1,0,0.2,0,0.3,0c0.4,0,0.8-0.2,0.8-0.7c0.1-1.4,1-2.6,2.2-2.9c0.2-0.1,0.4-0.1,0.6-0.1c0.3,0,0.5,0,0.8,0.1c1.2,0.4,2,1.6,2,3
			L40.3,32.7L40.3,32.7z M51.2,39.5c0.9,0.9,1.2,2.5,0.7,3.8c-0.5,1.2-1.5,1.8-2.6,1.8c-0.1,0-0.2,0-0.3,0c-0.4-0.1-0.8,0.2-0.8,0.7
			c-0.1,1.4-1,2.6-2.2,2.9c-0.2,0.1-0.4,0.1-0.6,0.1c-0.1,0-0.1,0-0.2,0c-1.4-0.1-2.5-1.5-2.5-3.1v-1l0,0v-2.3V36v-3.1v-0.3
			c0-1.4,0.8-2.6,2-3c0.3-0.1,0.5-0.1,0.8-0.1c0.2,0,0.4,0,0.6,0.1c1.3,0.3,2.1,1.5,2.2,2.9c0,0.4,0.4,0.7,0.8,0.7
			c0.1,0,0.2,0,0.3,0c1.1,0,2.1,0.7,2.6,1.8c0.6,1.3,0.3,2.9-0.7,3.8C50.9,38.8,50.9,39.2,51.2,39.5z"/>
		<path class="st14" d="M24.9,32.8c0.1-0.2,0.1-0.3,0.2-0.5c0.9-2,2.5-3.4,4.5-3.9c0.3-0.1,0.6-0.3,0.7-0.6c0.7-2,2.4-3.6,4.5-4.1
			c0.5-0.1,1-0.2,1.5-0.2c0.1,0,0.3,0,0.4,0c0.6-1.2,0.4-2.8-0.5-3.9c-1.3-1.5-3.6-1.8-5.1-0.5l-8.7,7.2c-1.5,1.3-1.8,3.6-0.5,5.1
			c0.7,0.9,1.8,1.3,2.8,1.3C24.7,32.8,24.8,32.8,24.9,32.8z"/>
		<g>
			<path class="st15" d="M63.2,45.5l-5.8-6.8c-0.1,0.3-0.1,0.5,0.1,0.8c1,1.9,1.1,4.2,0.2,6.3c-0.4,0.9-1,1.8-1.7,2.4l1.8,2.1
				c0.7,0.8,1.7,1.3,2.8,1.3c0.8,0,1.7-0.3,2.4-0.9C64.3,49.3,64.5,47,63.2,45.5z"/>
		</g>
		<g>
			<path class="st16" d="M25.1,45.8c-0.4-1-0.6-2-0.6-3c-1.3,1.4-1.3,3.7,0.1,5.1l0,0c0.7,0.7,1.6,1.1,2.6,1.1c0.2,0,0.4,0,0.6,0
				C26.6,48.2,25.7,47.1,25.1,45.8z"/>
		</g>
		<g>
			<path class="st17" d="M40.2,53.1c-0.9,0.7-1.9,1.2-2.9,1.4c-0.2,0-0.4,0.1-0.5,0.1c-0.2,0-0.3,0-0.5,0c-0.5,0-1-0.1-1.5-0.2
				c-1-0.3-1.9-0.7-2.6-1.4l-4.3,3.7c-1.5,1.3-1.7,3.6-0.4,5.1c0.7,0.8,1.7,1.3,2.8,1.3c0.8,0,1.7-0.3,2.4-0.9l7.2-6.2
				c1-0.8,1.4-2.1,1.2-3.2C40.7,52.8,40.5,52.9,40.2,53.1z"/>
		</g>
	</g>
	<g>
		<path class="st18" d="M111.9,31.5c-2.1,0-3.9,0.7-5.3,2.2s-2.2,3.5-2.2,6.1s0.7,4.6,2.2,6.1s3.2,2.2,5.4,2.2
			c1.9,0,3.4-0.5,4.5-1.5s1.9-2.1,2.3-3.5l7,2.3c-0.7,2.7-2.3,5.1-4.7,7c-2.4,2-5.4,2.9-9.1,2.9c-4.4,0-8.1-1.5-11.1-4.5
			s-4.5-6.7-4.5-11.2s1.5-8.2,4.4-11.2s6.6-4.4,10.9-4.4c3.8,0,6.8,1,9.2,2.9s3.9,4.3,4.6,7l-7.1,2.4
			C117.5,33.2,115.3,31.5,111.9,31.5z"/>
		<path class="st18" d="M133.5,28.6c2.9-3,6.6-4.4,11.1-4.4c4.4,0,8.1,1.5,11.1,4.4c2.9,3,4.4,6.7,4.4,11.2s-1.5,8.3-4.4,11.2
			c-2.9,3-6.6,4.4-11.1,4.4c-4.4,0-8.1-1.5-11.1-4.4c-2.9-3-4.4-6.7-4.4-11.2S130.6,31.5,133.5,28.6z M139.3,45.9
			c1.5,1.5,3.2,2.2,5.3,2.2s3.8-0.7,5.3-2.2s2.2-3.5,2.2-6.2c0-2.6-0.7-4.7-2.2-6.2c-1.5-1.5-3.2-2.2-5.3-2.2s-3.8,0.7-5.3,2.2
			c-1.5,1.5-2.2,3.5-2.2,6.2S137.8,44.5,139.3,45.9z"/>
		<path class="st18" d="M164.2,56.1l7.2-1.9c0.3,1.6,1,3,2.3,4c1.2,1,2.8,1.6,4.6,1.6c5.2,0,7.9-2.7,7.9-8.2v-2.2
			c-0.7,1.1-1.7,2-3.1,2.7c-1.4,0.7-3.1,1.1-5.1,1.1c-3.9,0-7.2-1.4-9.8-4.1s-3.9-6.1-3.9-10.2c0-4,1.3-7.4,3.9-10.2
			c2.6-2.8,5.9-4.2,9.8-4.2c2.2,0,4,0.4,5.4,1.2c1.4,0.8,2.4,1.7,3,2.8V25h7.7v26.3c0,4.4-1.3,8.1-3.8,11.1
			c-2.6,2.9-6.4,4.4-11.6,4.4c-3.9,0-7.1-1-9.7-3.1C166.2,61.6,164.7,59.1,164.2,56.1z M179.3,46.4c2,0,3.7-0.7,5-2
			c1.3-1.4,1.9-3.2,1.9-5.5c0-2.2-0.7-4-2-5.4s-3-2-4.9-2c-2,0-3.7,0.7-5.1,2c-1.3,1.4-2,3.2-2,5.4c0,2.3,0.7,4.1,2,5.5
			C175.6,45.7,177.2,46.4,179.3,46.4z"/>
		<path class="st18" d="M210.1,37.6v17h-8V25h7.7v3.7c0.8-1.4,2-2.5,3.6-3.3s3.2-1.1,4.9-1.1c3.5,0,6.1,1.1,7.9,3.3
			c1.8,2.2,2.7,5,2.7,8.4v18.6h-8V37.3c0-1.8-0.4-3.2-1.3-4.3c-0.9-1.1-2.3-1.6-4.1-1.6c-1.7,0-3,0.6-4,1.7
			C210.6,34.3,210.1,35.8,210.1,37.6z"/>
		<path class="st18" d="M256.9,44.1l6.7,2c-0.8,2.7-2.4,5-4.7,6.7c-2.3,1.8-5.2,2.6-8.7,2.6c-4.2,0-7.8-1.4-10.8-4.3
			s-4.4-6.7-4.4-11.5c0-4.6,1.4-8.3,4.3-11.2c2.9-2.9,6.3-4.3,10.2-4.3c4.6,0,8.1,1.4,10.7,4.1s3.9,6.5,3.9,11.2c0,0.3,0,0.7,0,1.1
			s0,0.7,0,1l-0.1,0.4h-21.1c0.1,1.9,0.8,3.5,2.3,4.8c1.4,1.3,3.2,1.9,5.2,1.9C253.6,48.6,255.8,47.1,256.9,44.1z M242.9,36.4h13.2
			c-0.1-1.6-0.7-3-1.8-4.1c-1.1-1.1-2.7-1.7-4.8-1.7c-1.9,0-3.5,0.6-4.7,1.8C243.6,33.6,243,34.9,242.9,36.4z"/>
		<path class="st18" d="M268.4,46.5c0-2.5,0.8-4.5,2.5-6.1c1.6-1.5,3.8-2.5,6.4-2.9l7.3-1.1c1.5-0.2,2.2-0.9,2.2-2.1
			c0-1.1-0.4-2-1.3-2.8c-0.9-0.7-2.1-1.1-3.7-1.1c-1.7,0-3,0.5-4,1.4c-1,0.9-1.5,2.1-1.6,3.4l-7.1-1.5c0.3-2.6,1.5-4.8,3.8-6.8
			c2.2-2,5.2-2.9,8.9-2.9c4.4,0,7.6,1,9.7,3.1s3.1,4.8,3.1,8.1v14.5c0,1.8,0.1,3.3,0.4,4.7h-7.3c-0.2-0.9-0.3-2.1-0.3-3.5
			c-1.9,2.9-4.8,4.4-8.7,4.4c-3,0-5.5-0.9-7.3-2.6C269.4,51,268.4,48.9,268.4,46.5z M280.2,49.4c1.9,0,3.4-0.5,4.6-1.6
			s1.8-2.8,1.8-5.2v-1.3l-6.7,1c-2.4,0.4-3.7,1.6-3.7,3.7c0,1,0.3,1.8,1,2.4C278.1,49.1,279,49.4,280.2,49.4z"/>
		<path class="st18" d="M300,46.3l6.8-1.5c0.1,1.3,0.6,2.3,1.5,3.2s2.2,1.3,3.9,1.3c1.2,0,2.2-0.3,2.9-0.8c0.7-0.6,1-1.3,1-2.1
			c0-1.5-1.1-2.4-3.2-2.9l-3.9-0.9c-2.8-0.6-4.8-1.7-6.2-3.2c-1.4-1.6-2.1-3.4-2.1-5.6c0-2.7,1-5,3.1-6.8c2.1-1.9,4.7-2.8,7.9-2.8
			c2,0,3.8,0.3,5.3,0.9s2.7,1.3,3.5,2.2s1.5,1.8,1.9,2.7s0.7,1.8,0.8,2.7l-6.7,1.5c-0.2-1-0.6-2-1.4-2.8c-0.8-0.8-1.9-1.2-3.4-1.2
			c-1,0-1.9,0.3-2.7,0.8c-0.7,0.6-1.1,1.3-1.1,2.1c0,1.4,0.9,2.3,2.7,2.6l4.2,0.9c2.8,0.6,5,1.7,6.5,3.3s2.2,3.5,2.2,5.8
			c0,2.6-1,4.9-3,6.8s-4.8,2.9-8.4,2.9c-2.1,0-3.9-0.3-5.6-0.9c-1.6-0.6-2.9-1.4-3.8-2.4s-1.6-2-2-2.9
			C300.4,48.2,300.1,47.2,300,46.3z"/>
		<path class="st18" d="M339.9,66.1h-8.5l7-15.3L325.9,25h8.9l7.9,17.3L350,25h8.5L339.9,66.1z"/>
	</g>
</g>
</svg>
